# xmcd
#
# Track frame offsets:
# 150
# 14900
# 25882
# 41489
# 54087
# 64957
# 77499
# 89066
# 99128
# 111921
# 123404
# 138398
# 149500
# 156010
# 166476
# 177973
# 188258
# 194963
# 204983
# 217692
# 228200
# 236883
# 248018
# 257983
#
# Disc length: 3577 seconds
#
# Revision: 0
# Processed by: cddbd v1.5PL3 Copyright (c) Steve Scherf et al.
# Submitted via: Audion 3.0.2 (http://www.panic.com/audion/)
#
DISCID=4f0df718
DTITLE=Helmut Zacharias - Plays Verdi and Puccini
DYEAR=1900
DGENRE=
TTITLE0=The Green Leaves of Summer
TTITLE1=Kalinka
TTITLE2=Il nostro concerto
TTITLE3=Un violin chantait
TTITLE4=Tres jolie
TTITLE5=Tornero
TTITLE6=J'ai rendezvous avec Paris
TTITLE7=Milord
TTITLE8=Are You Lonesome Tonight
TTITLE9=Amour je te dois
TTITLE10=Dreamy
TTITLE11=C'est d'la musique
TTITLE12=O wie so trugerisch
TTITLE13=Teurer Name, dessen Klang
TTITLE14=Holdes Madchen, sieh mein Leiden
TTITLE15=Flieg' Gedanke
TTITLE16=Holde Aida
TTITLE17=Triumph-Marsch
TTITLE18=Wie eiskalt ist dies Handchen
TTITLE19=Man nennt mich jetzt Mimi
TTITLE20=Will ich allein
TTITLE21=Nur der Schonheit
TTITLE22=Eines Tages seh'n wir
TTITLE23=Keiner schlafe
EXTD=
EXTT0=
EXTT1=
EXTT2=
EXTT3=
EXTT4=
EXTT5=
EXTT6=
EXTT7=
EXTT8=
EXTT9=
EXTT10=
EXTT11=
EXTT12=
EXTT13=
EXTT14=
EXTT15=
EXTT16=
EXTT17=
EXTT18=
EXTT19=
EXTT20=
EXTT21=
EXTT22=
EXTT23=
PLAYORDER=
